<svg xmlns="http://www.w3.org/2000/svg" aria-hidden="true" style="position:absolute;width:0;height:0;overflow:hidden"><defs><symbol id="icon-number1" viewBox="0 0 13 32"><path fill="#d1d1df" d="M6.588 0h.235v18.824h-.235V0z" style="fill:var(--color1, #d1d1df)"/><path fill="#fafafa" d="M6.706 18.941a6.47 6.47 0 1 1 0 12.942 6.47 6.47 0 0 1 0-12.942z" style="fill:var(--color2, #fafafa)"/><path fill="none" stroke="#d1d1df" stroke-width=".235" d="M6.706 18.941a6.47 6.47 0 1 1 0 12.942 6.47 6.47 0 0 1 0-12.942z" style="stroke:var(--color1, #d1d1df)"/><path fill="#87879d" d="M5.895 26.865c-.238 0-.448-.056-.629-.169a1.157 1.157 0 0 1-.418-.474 1.645 1.645 0 0 1-.147-.715c0-.274.049-.512.147-.715.1-.203.24-.361.418-.474.181-.113.39-.169.629-.169s.447.056.625.169c.181.113.32.271.418.474.1.203.151.442.151.715 0 .271-.05.509-.151.715a1.116 1.116 0 0 1-.418.474 1.142 1.142 0 0 1-.625.169zm0-.527a.517.517 0 0 0 .316-.098.635.635 0 0 0 .207-.29c.05-.125.075-.274.075-.444 0-.173-.025-.321-.075-.444a.612.612 0 0 0-.207-.286.5.5 0 0 0-.316-.102.516.516 0 0 0-.32.102.64.64 0 0 0-.207.286 1.222 1.222 0 0 0-.072.444c0 .171.024.319.072.444.05.125.119.222.207.29.09.065.197.098.32.098zm1.921.486v-2.018l-.546.218v-.527l.772-.309h.384v2.635h-.61z" style="fill:var(--color3, #87879d)"/></symbol><symbol id="icon-number2" viewBox="0 0 13 32"><path fill="#d1d1df" d="M6.588 0h.235v18.824h-.235V0z" style="fill:var(--color1, #d1d1df)"/><path fill="#fafafa" d="M6.706 18.941a6.47 6.47 0 1 1 0 12.942 6.47 6.47 0 0 1 0-12.942z" style="fill:var(--color2, #fafafa)"/><path fill="none" stroke="#d1d1df" stroke-width=".235" d="M6.706 18.941a6.47 6.47 0 1 1 0 12.942 6.47 6.47 0 0 1 0-12.942z" style="stroke:var(--color1, #d1d1df)"/><path fill="#87879d" d="M5.542 26.865c-.238 0-.448-.056-.629-.169a1.157 1.157 0 0 1-.418-.474 1.645 1.645 0 0 1-.147-.715c0-.274.049-.512.147-.715.1-.203.24-.361.418-.474.181-.113.39-.169.629-.169s.447.056.625.169c.181.113.32.271.418.474.1.203.151.442.151.715 0 .271-.05.509-.151.715a1.116 1.116 0 0 1-.418.474 1.142 1.142 0 0 1-.625.169zm0-.527a.517.517 0 0 0 .316-.098.635.635 0 0 0 .207-.29c.05-.125.075-.274.075-.444 0-.173-.025-.321-.075-.444a.612.612 0 0 0-.207-.286.5.5 0 0 0-.316-.102.516.516 0 0 0-.32.102.64.64 0 0 0-.207.286 1.222 1.222 0 0 0-.072.444c0 .171.024.319.072.444.05.125.119.222.207.29.09.065.197.098.32.098zm1.433.486v-.414l1.114-1.103a.498.498 0 0 0 .158-.237.417.417 0 0 0 .019-.12.253.253 0 0 0-.113-.211.427.427 0 0 0-.275-.087.747.747 0 0 0-.331.075 1.273 1.273 0 0 0-.335.248l-.324-.395c.151-.143.31-.251.478-.324.171-.073.348-.109.531-.109.188 0 .351.033.489.098.141.063.25.152.328.267a.685.685 0 0 1 .117.399.816.816 0 0 1-.147.463 1.48 1.48 0 0 1-.196.226l-.76.734 1.141-.004v.493H6.975z" style="fill:var(--color3, #87879d)"/></symbol></defs></svg>